Coordinates
version=1
nRows=29
nColumns=24
inDegrees=yes

Units are S.I. units (second, meters, Newtons, ...)
Angles are in degrees.

endheader
time	pelvis_tilt	pelvis_list	pelvis_rotation	pelvis_tx	pelvis_ty	pelvis_tz	hip_flexion_r	hip_adduction_r	hip_rotation_r	knee_angle_r	ankle_angle_r	subtalar_angle_r	mtp_angle_r	hip_flexion_l	hip_adduction_l	hip_rotation_l	knee_angle_l	ankle_angle_l	subtalar_angle_l	mtp_angle_l	lumbar_extension	lumbar_bending	lumbar_rotation
      1.81000000	     -3.11978042	     -1.13626521	     -1.39738103	      0.27793604	      0.99108069	     -0.02836780	     19.52897761	     -0.71476464	      0.12547730	      4.71657391	     -5.04059193	      0.00000000	      0.00000000	     -4.58392067	      0.82343782	      2.09058515	    -16.36493273	     16.82618498	      0.00000000	      0.00000000	    -11.55040091	      7.22444797	     -5.15996146
      1.82000000	     -3.12677587	     -1.19840494	     -1.25103037	      0.27914442	      0.99050616	     -0.02682148	     19.44528876	     -0.47439801	      0.53183228	      4.13694642	     -5.10246582	      0.00000000	      0.00000000	     -4.91581311	      0.64866019	      2.29829424	    -16.75630986	     16.70137171	      0.00000000	      0.00000000	    -11.48892604	      7.43689517	     -5.23974568
      1.83000000	     -3.10284474	     -1.29682342	     -1.07774329	      0.28049997	      0.99007293	     -0.02518790	     19.34274620	     -0.19582642	      0.97565954	      3.40311494	     -5.18392034	      0.00000000	      0.00000000	     -5.23617139	      0.42158190	      2.46463329	    -17.23418693	     16.54862895	      0.00000000	      0.00000000	    -11.44831491	      7.68741913	     -5.32930852
      1.84000000	     -2.94665887	     -1.74902218	     -1.01378378	      0.28173777	      0.98981295	     -0.02323685	     19.42029793	      0.51765063	      1.27035777	      1.88365475	     -4.77083123	      0.00000000	      0.00000000	     -5.38733718	     -0.19663843	      2.24240013	    -18.42795374	     16.52902146	      0.00000000	      0.00000000	    -11.63369639	      8.30784742	     -5.14097610
      1.85000000	     -2.91926135	     -1.93092283	     -0.82494124	      0.28321731	      0.98954420	     -0.02150416	     19.42795632	      0.86515682	      1.75379031	      0.79560812	     -4.91735896	      0.00000000	      0.00000000	     -5.48749807	     -0.52618216	      2.32183790	    -19.37493726	     16.25314997	      0.00000000	      0.00000000	    -11.60345340	      8.66529656	     -5.17319889
      1.86000000	     -2.83436195	     -2.09401638	     -0.59914539	      0.28475996	      0.98951030	     -0.01987206	     19.35205246	      1.14863698	      2.25882711	     -0.25344016	     -5.15933295	      0.00000000	      0.00000000	     -5.58146228	     -0.83544607	      2.44306609	    -20.41544604	     15.79857579	      0.00000000	      0.00000000	    -11.63426683	      9.02324260	     -5.18340123
      1.87000000	     -3.01635509	     -2.37968700	     -0.34461805	      0.28623115	      0.98910030	     -0.01811269	     19.69118979	      1.55756408	      2.54493360	     -1.58257597	     -5.09963641	      0.00000000	      0.00000000	     -5.06040975	     -1.30702258	      2.34123802	    -22.11826254	     15.53293335	      0.00000000	      0.00000000	    -11.35338028	      9.51662444	     -5.25677594
      1.88000000	     -2.84216620	     -2.49666629	     -0.11644370	      0.28785720	      0.98948920	     -0.01648739	     19.48139001	      1.75469979	      2.86567421	     -2.53587526	     -5.28896711	      0.00000000	      0.00000000	     -4.99884166	     -1.58328432	      2.31538545	    -23.56787308	     14.65619808	      0.00000000	      0.00000000	    -11.48708460	      9.83655862	     -5.27077638
      1.89000000	     -2.63798518	     -2.51862400	      0.11653787	      0.28943958	      0.99012286	     -0.01494250	     19.17301561	      1.81727538	      3.32548684	     -3.35437696	     -5.53207212	      0.00000000	      0.00000000	     -4.91731760	     -1.74544950	      2.45642321	    -25.02606925	     13.64539647	      0.00000000	      0.00000000	    -11.66539373	     10.06281852	     -5.27791755
      1.90000000	     -2.73623455	     -2.84234008	      0.38007240	      0.29084083	      0.99030764	     -0.01327395	     19.29441342	      2.20083374	      3.22998213	     -4.42174872	     -5.24962222	      0.00000000	      0.00000000	     -3.99674277	     -2.28870772	      2.24309808	    -27.48296095	     12.53032836	      0.00000000	      0.00000000	    -11.49375794	     10.61973599	     -5.24325187
      1.91000000	     -2.46281401	     -2.72557593	      0.50507388	      0.29220132	      0.99132387	     -0.01171610	     18.81523299	      2.13191304	      3.51702665	     -5.03081283	     -5.33616923	      0.00000000	      0.00000000	     -3.62581408	     -2.29608630	      2.29674289	    -29.51510888	     11.05322735	      0.00000000	      0.00000000	    -11.79808210	     10.68379730	     -5.12584528
      1.92000000	     -2.31764693	     -2.81862333	      0.73387159	      0.29345291	      0.99227302	     -0.00998984	     18.43795955	      2.27067442	      3.50036063	     -5.63696937	     -5.05719078	      0.00000000	      0.00000000	     -2.82637857	     -2.63560353	      2.07483891	    -31.95889279	      9.11999488	      0.00000000	      0.00000000	    -11.94487394	     10.96822240	     -5.04188045
      1.93000000	     -2.77462555	     -3.16987397	      0.95781035	      0.29449261	      0.99226167	     -0.00824279	     18.83448685	      2.67997001	      3.23452811	     -6.53732943	     -4.55966788	      0.00000000	      0.00000000	     -1.05559213	     -3.23672750	      2.02740810	    -35.01694422	      7.45805562	      0.00000000	      0.00000000	    -11.38183100	     11.53783982	     -4.98024142
      1.94000000	     -2.55528869	     -3.22350539	      1.04725884	      0.29564167	      0.99349697	     -0.00638678	     18.25639310	      2.83968608	      3.19775484	     -6.93799658	     -4.17149593	      0.00000000	      0.00000000	     -0.20386673	     -3.53604343	      1.88241198	    -37.54002980	      5.20668413	      0.00000000	      0.00000000	    -11.63823806	     11.74643763	     -4.76005504
      1.95000000	     -2.70952309	     -3.50547945	      1.17205998	      0.29651088	      0.99408193	     -0.00439392	     18.11810223	      3.23041569	      2.94234092	     -7.41523034	     -3.74064597	      0.00000000	      0.00000000	      1.31515223	     -4.12037066	      1.72775407	    -40.50102544	      3.18709410	      0.00000000	      0.00000000	    -11.46860946	     12.17768142	     -4.53192886
      1.96000000	     -2.51526811	     -3.60721709	      1.21245507	      0.29744136	      0.99531634	     -0.00241928	     17.48387968	      3.47353355	      2.76329591	     -7.65619681	     -3.25323203	      0.00000000	      0.00000000	      2.33716686	     -4.51979485	      1.53191988	    -43.12458712	      0.87774198	      0.00000000	      0.00000000	    -11.71866009	     12.39492119	     -4.22356417
      1.97000000	     -2.40701183	     -3.78560070	      1.23960007	      0.29821464	      0.99635743	     -0.00040753	     16.91318862	      3.79883347	      2.50597889	     -7.81949816	     -2.80215919	      0.00000000	      0.00000000	      3.52210726	     -5.02889049	      1.29841535	    -45.81588418	     -1.20376571	      0.00000000	      0.00000000	    -11.87741828	     12.67332254	     -3.88900556
      1.98000000	     -2.32340974	     -3.96814094	      1.25235714	      0.29886725	      0.99733262	      0.00151460	     16.33425763	      4.11958750	      2.23809964	     -7.89622470	     -2.38286006	      0.00000000	      0.00000000	      4.74463372	     -5.55230717	      1.03891948	    -48.46266707	     -3.04556158	      0.00000000	      0.00000000	    -12.01380696	     12.95021483	     -3.54936355
      1.99000000	     -2.27976603	     -4.17645045	      1.24313520	      0.29941128	      0.99823415	      0.00339878	     15.75960209	      4.46342503	      1.94765485	     -7.87288214	     -2.02981080	      0.00000000	      0.00000000	      5.99062146	     -6.12057872	      0.74620306	    -51.00633884	     -4.56234533	      0.00000000	      0.00000000	    -12.11119552	     13.23871183	     -3.17352233
      2.00000000	     -2.12266001	     -4.25013729	      1.20665327	      0.29981005	      0.99933097	      0.00512556	     15.02774789	      4.65783183	      1.75771581	     -7.77185889	     -1.59577876	      0.00000000	      0.00000000	      7.04056006	     -6.52495621	      0.46285308	    -53.33064161	     -5.79387658	      0.00000000	      0.00000000	    -12.36008027	     13.38203077	     -2.79169068
      2.01000000	     -1.92146575	     -4.02975460	      1.07313779	      0.30004487	      1.00057108	      0.00659922	     14.29142687	      4.54140080	      1.49195878	     -7.72479036	     -1.40492223	      0.00000000	      0.00000000	      7.89016627	     -6.53447928	      0.17835778	    -55.34091532	     -6.18633910	      0.00000000	      0.00000000	    -12.68825661	     13.19347059	     -2.36269536
      2.02000000	     -1.84391460	     -4.42889426	      1.06653455	      0.30027643	      1.00147528	      0.00840655	     13.51349280	      5.06470242	      1.48184513	     -7.34787384	     -0.80965174	      0.00000000	      0.00000000	      9.06026173	     -7.38240130	     -0.17184707	    -57.47450089	     -7.01791970	      0.00000000	      0.00000000	    -12.83369776	     13.66048203	     -1.99271540
      2.03000000	     -1.79359845	     -4.58787651	      0.96967181	      0.30034940	      1.00247290	      0.00995719	     12.77965623	      5.32347860	      1.45720103	     -6.96220790	     -0.64929620	      0.00000000	      0.00000000	     10.11983072	     -7.88832389	     -0.50495907	    -59.30704052	     -6.81942709	      0.00000000	      0.00000000	    -12.97518011	     13.87509976	     -1.57993263
      2.04000000	     -1.64202314	     -4.36582479	      0.85066445	      0.30018717	      1.00378507	      0.01120254	     12.10490465	      5.17339211	      1.26697709	     -6.91494314	     -0.54663414	      0.00000000	      0.00000000	     10.95246054	     -7.87477089	     -0.74006167	    -60.70135701	     -6.72046329	      0.00000000	      0.00000000	    -13.25716069	     13.67706550	     -1.21592597
      2.05000000	     -1.65555174	     -4.72299722	      0.74120905	      0.30024192	      1.00471274	      0.01283662	     11.23945878	      5.63765498	      1.56920194	     -6.12912951	     -0.46368856	      0.00000000	      0.00000000	     12.02277398	     -8.59938171	     -1.02915468	    -62.12419076	     -5.74750314	      0.00000000	      0.00000000	    -13.30174169	     14.08221358	     -0.78884419
      2.06000000	     -1.57696136	     -4.58351899	      0.65704277	      0.30005601	      1.00595684	      0.01403580	     10.51745269	      5.55750316	      1.64077707	     -5.85291283	     -0.15170474	      0.00000000	      0.00000000	     12.88202921	     -8.62474564	     -1.15843196	    -63.07192101	     -5.08436391	      0.00000000	      0.00000000	    -13.45452580	     13.96948600	     -0.50802384
      2.07000000	     -1.56932253	     -4.52751312	      0.52017039	      0.29994973	      1.00711094	      0.01524510	      9.78987234	      5.56942962	      1.82053796	     -5.43104613	      0.09978633	      0.00000000	      0.00000000	     13.74836119	     -8.68036404	     -1.21186383	    -63.77056614	     -4.00758698	      0.00000000	      0.00000000	    -13.50947096	     13.95172961	     -0.18452940
      2.08000000	     -1.57215059	     -4.43527430	      0.40926854	      0.29971327	      1.00829642	      0.01630517	      9.11785766	      5.52544361	      1.95065715	     -5.06020561	      0.22971600	      0.00000000	      0.00000000	     14.60846182	     -8.64337671	     -1.20671316	    -64.21776216	     -3.06565080	      0.00000000	      0.00000000	    -13.55698686	     13.90468574	      0.10056543
      2.09000000	     -1.57651267	     -4.31119168	      0.28794535	      0.29932920	      1.00948942	      0.01726341	      8.50788951	      5.44664138	      1.99753023	     -4.79390408	      0.34188681	      0.00000000	      0.00000000	     15.44280886	     -8.49612479	     -1.10953261	    -64.40608873	     -2.33123038	      0.00000000	      0.00000000	    -13.61185809	     13.82556546	      0.37641680
